<svg version="1.1" id="Layer_1" xmlns="http://www.w3.org/2000/svg" xmlns:xlink="http://www.w3.org/1999/xlink" x="0px" y="0px"
	 width="100%" viewBox="0 0 320 320" enable-background="new 0 0 320 320" xml:space="preserve">
<path fill="#000000" opacity="1.000000" stroke="none" 
	d="
M203.399994,321.000000 
	C204.370438,317.385071 203.074554,313.474426 204.052002,310.064880 
	C204.995560,308.893341 206.054001,309.439880 206.961914,309.251709 
	C210.875015,308.440552 214.054199,309.012024 214.571045,313.669098 
	C215.047012,317.957611 212.423111,319.475739 208.534317,319.556061 
	C208.151871,319.563934 207.780853,320.126038 207.202271,320.715454 
	C205.933334,321.000000 204.866653,321.000000 203.399994,321.000000 
z"/>
<path fill="#000000" opacity="1.000000" stroke="none" 
	d="
M202.999878,302.382874 
	C153.676834,302.384338 104.850243,302.054810 56.032856,302.579773 
	C40.651394,302.745178 30.073383,290.490509 30.765562,277.204681 
	C30.973375,273.215912 30.693058,269.203430 30.843615,265.209595 
	C31.353060,251.695419 41.055233,242.213821 54.603046,241.919174 
	C57.564568,241.854767 60.528679,241.909729 64.788673,241.909729 
	C32.305004,204.109756 21.233593,161.989670 33.943554,114.702965 
	C42.368622,83.357956 60.946373,58.693066 87.895508,40.855347 
	C139.223251,6.881341 208.768646,12.289951 255.114838,58.736881 
	C297.346313,101.060143 310.974396,182.248581 257.083679,241.266678 
	C260.680634,242.339951 264.126129,241.816788 267.485382,241.829193 
	C283.409729,241.887985 293.185059,251.422623 293.160919,267.242584 
	C293.152344,272.882599 293.718353,278.543701 292.486359,284.172150 
	C290.143158,294.877197 281.406097,302.302307 270.486877,302.341614 
	C248.158127,302.421967 225.828918,302.376038 202.999878,302.382874 
M257.690308,230.191620 
	C281.689453,200.058762 290.349182,166.015549 283.807587,128.060455 
	C272.250031,61.002010 206.197662,12.303373 133.356552,28.178844 
	C70.706573,41.833199 28.007240,101.633949 36.177074,165.239639 
	C39.780136,193.291031 50.915855,217.565369 70.545410,237.920578 
	C71.977806,239.405930 73.189255,241.404968 76.354065,241.259354 
	C77.940437,199.975800 80.269737,158.767914 84.643257,117.676132 
	C85.351379,119.650124 85.364243,121.605736 85.349480,123.561127 
	C85.067780,160.874100 86.020531,198.200821 84.259819,235.494843 
	C84.019920,240.576202 85.651604,242.041779 90.709053,242.012207 
	C123.534180,241.820358 156.363052,241.730392 189.186264,242.055618 
	C199.898788,242.161743 209.695221,240.749741 217.778397,233.072006 
	C220.553070,230.436508 223.297363,230.721741 226.200958,233.181107 
	C228.608521,235.220337 231.287735,237.039200 234.448334,237.728958 
	C236.261673,238.124695 238.791870,238.166672 238.170380,235.439423 
	C237.483078,232.423340 238.066742,229.468338 237.618988,226.516129 
	C232.384018,191.999390 229.166473,157.249176 225.625259,122.536736 
	C225.049561,116.893524 222.054382,114.934982 216.762512,116.827934 
	C211.249878,118.799858 202.140030,116.141502 198.160599,111.155067 
	C203.310257,111.265251 207.358139,115.459503 212.146957,114.614075 
	C216.947968,113.766510 220.322678,109.631470 224.733002,107.663528 
	C227.129395,106.594246 228.716141,107.489166 229.249603,109.873184 
	C230.082336,113.594574 230.771271,117.357155 231.320694,121.131470 
	C234.504761,143.005722 237.621521,164.894226 239.620514,186.913055 
	C241.112762,203.350174 244.158981,219.637085 244.358566,236.199203 
	C244.379547,237.938858 243.794098,239.925095 246.121262,241.577286 
	C250.634262,238.948624 253.602051,234.473572 257.690308,230.191620 
M167.500183,246.407074 
	C148.000519,246.410095 128.500854,246.414856 109.001183,246.415604 
	C91.668053,246.416260 74.334656,246.353363 57.001869,246.429611 
	C43.541538,246.488831 36.036781,254.066055 35.921707,267.552704 
	C35.886169,271.717560 35.843086,275.892578 36.077431,280.047516 
	C36.675644,290.653656 43.953255,297.667175 54.501789,297.673218 
	C126.167633,297.714233 197.833511,297.720001 269.499359,297.684662 
	C279.853333,297.679565 287.186218,290.769592 287.874115,280.526428 
	C288.130524,276.708557 288.066620,272.865723 288.062805,269.034363 
	C288.047241,253.442673 281.085388,246.441513 265.499023,246.426865 
	C233.166107,246.396454 200.833145,246.411011 167.500183,246.407074 
M224.303253,238.297577 
	C220.210907,236.601120 217.798019,239.644470 214.164459,241.478943 
	C219.498718,241.478943 223.993591,241.478943 229.724182,241.478943 
	C227.388855,240.064789 226.158524,239.319763 224.303253,238.297577 
z"/>
<path fill="#000000" opacity="1.000000" stroke="none" 
	d="
M141.908173,307.324402 
	C142.013519,309.458801 142.155930,311.219208 142.342972,313.531464 
	C143.170471,311.447601 142.558899,308.951172 145.465683,309.249725 
	C147.788742,309.488281 150.581146,307.774780 152.274063,310.660431 
	C153.610733,312.938873 153.436661,315.462494 152.782745,317.911469 
	C152.655319,318.388702 151.891388,318.883148 151.336014,319.017059 
	C150.397171,319.243408 149.894943,318.549866 149.493210,317.741486 
	C148.778397,316.303131 149.657669,314.354675 147.201096,312.560913 
	C147.086273,318.966431 143.594299,320.532440 138.083008,320.106903 
	C131.864120,319.626801 131.837860,319.967010 128.494415,312.863464 
	C125.445366,313.861755 129.175385,319.843842 124.183716,319.036011 
	C121.914307,318.668732 123.659012,316.175354 122.970680,313.991486 
	C121.871201,316.979492 120.178642,318.795135 117.589127,319.551025 
	C113.763931,320.667542 110.474663,319.669281 108.595711,316.205658 
	C106.810402,312.914581 106.861069,309.276520 110.040611,306.711700 
	C113.232147,304.137207 117.177376,303.882263 120.060020,306.764832 
	C122.544998,309.249756 125.208939,309.659760 128.038208,309.109070 
	C131.379990,308.458588 132.978775,309.661407 133.562103,312.987915 
	C134.581635,310.182434 132.018555,306.464508 135.665787,305.205444 
	C137.504425,304.570740 140.719849,303.380554 141.908173,307.324402 
M112.913544,314.957397 
	C114.874702,316.162079 116.723747,316.258087 118.079308,314.128998 
	C118.961021,312.744171 118.856972,311.222443 117.746330,309.968781 
	C116.632713,308.711792 115.220467,308.324829 113.743713,309.342102 
	C111.861450,310.638733 111.097900,312.294891 112.913544,314.957397 
z"/>
<path fill="#000000" opacity="1.000000" stroke="none" 
	d="
M176.894821,309.609314 
	C175.885574,309.158539 175.159012,308.866089 174.432434,308.573608 
	C174.284760,308.885590 174.137070,309.197571 173.989395,309.509521 
	C176.178741,310.423096 178.368103,311.336639 180.695099,312.307648 
	C181.910492,309.900146 179.937454,306.644897 183.473221,304.813904 
	C184.495834,309.336060 190.328217,308.034973 191.780045,312.273651 
	C192.578720,311.410706 193.228378,310.399017 194.143707,309.780426 
	C196.480850,308.200958 198.991333,308.367493 201.096100,310.103577 
	C203.243515,311.874847 203.728561,314.352814 202.426224,316.859192 
	C201.064209,319.480469 198.396454,320.176453 195.991226,319.315247 
	C193.487976,318.418915 191.230270,317.962616 189.051605,319.118805 
	C186.784882,317.361816 188.663635,314.582092 186.585709,312.792297 
	C184.078110,314.131134 186.139313,317.288910 183.952423,319.035553 
	C181.633041,318.444397 179.151062,318.818665 176.482788,319.676483 
	C171.930344,321.140045 169.398376,318.474304 170.545029,314.004517 
	C170.802551,313.000671 170.222839,312.456726 169.838501,311.764709 
	C168.447067,309.259399 169.076981,307.174744 171.448914,305.832611 
	C174.002258,304.387787 176.845551,304.610931 178.877121,306.589783 
	C180.884644,308.545166 179.881470,309.834137 176.894821,309.609314 
z"/>
<path fill="#000000" opacity="1.000000" stroke="none" 
	d="
M156.222549,318.783020 
	C152.616013,314.242004 153.494690,309.711304 157.863541,308.920654 
	C160.776321,308.393524 163.362289,309.347748 163.973389,312.493103 
	C164.736923,316.423096 160.811661,314.687225 159.085281,316.040588 
	C160.410522,317.360352 162.398422,315.328308 163.478088,316.963715 
	C161.561218,320.374542 161.561218,320.374542 156.222549,318.783020 
z"/>
<path fill="#000000" opacity="1.000000" stroke="none" 
	d="
M173.346817,176.869965 
	C173.128784,186.134842 168.950485,193.246246 163.557480,199.739410 
	C157.733765,206.751129 150.467178,211.979294 142.341705,216.047638 
	C139.672729,217.383972 136.849136,217.909073 134.177963,216.471191 
	C119.890869,208.780502 107.582260,199.162079 103.316383,182.447281 
	C101.265800,174.412552 101.890785,166.655563 107.169655,159.711060 
	C115.150185,149.212448 127.919968,148.760529 136.468979,158.761139 
	C136.878555,159.240265 137.384735,159.636841 138.066422,160.279846 
	C141.807007,156.255997 145.451385,152.317245 151.176514,151.712219 
	C162.481720,150.517548 172.472748,158.946075 173.278183,170.414902 
	C173.417816,172.403229 173.337067,174.407028 173.346817,176.869965 
M143.156647,197.495758 
	C150.436707,201.054596 154.431519,200.176941 159.136292,194.270004 
	C163.779816,188.439957 165.771484,181.623550 166.321075,174.427567 
	C166.876083,167.160919 162.335953,159.667450 156.616226,157.184601 
	C154.799835,156.396118 152.204086,155.837158 152.055984,157.964096 
	C151.836380,161.118195 150.427826,164.417679 152.173935,167.664825 
	C154.371674,171.751877 153.775955,172.968460 149.203506,173.092453 
	C141.894241,173.290665 134.575409,173.149002 127.260742,173.122314 
	C125.930458,173.117462 124.352722,173.164001 123.645905,171.881622 
	C121.465317,167.925415 116.138885,166.356827 116.040451,160.762650 
	C108.292267,168.403793 107.240501,177.492157 113.236023,184.976212 
	C115.864899,181.669632 118.434753,178.437302 121.276619,174.862839 
	C124.938889,179.461853 125.391579,184.730331 127.196915,189.421112 
	C127.979431,191.454315 128.402725,194.034180 130.707153,194.499832 
	C133.285385,195.020767 133.336685,196.689133 133.228836,198.758011 
	C139.784424,194.771698 139.784424,194.771698 143.156647,197.495758 
z"/>
<path fill="#000000" opacity="1.000000" stroke="none" 
	d="
M172.891541,58.221954 
	C169.775177,58.467113 166.971985,56.438557 163.849457,58.793098 
	C167.806702,63.981983 171.063995,69.543770 173.137024,75.684319 
	C175.820541,83.633179 176.899704,91.935074 176.979965,100.226921 
	C177.027328,105.120377 178.488647,107.262482 183.296555,107.297966 
	C184.741104,107.308632 186.182220,107.783104 188.106155,108.132500 
	C186.561646,110.402451 184.538849,110.412094 182.726501,110.241798 
	C178.303955,109.826271 175.544159,111.119072 175.753448,116.631363 
	C174.977539,111.055023 171.394379,110.923058 167.476059,111.339821 
	C149.374390,113.265129 131.221527,111.915894 113.095299,112.237061 
	C105.351501,112.374268 97.888733,110.280365 90.216560,110.051437 
	C89.255363,110.022758 88.235580,109.768364 87.120148,108.112045 
	C91.743690,107.605644 95.994125,106.938950 100.266998,106.729080 
	C104.483154,106.522011 106.977692,105.413361 107.191589,100.429619 
	C107.614273,90.581528 109.627205,80.984337 113.510735,71.838867 
	C119.907875,56.774044 130.744949,49.861862 146.683121,50.666370 
	C149.232803,50.795071 151.839554,51.066490 153.860046,52.486225 
	C159.008759,56.104046 164.109619,55.902981 170.135956,54.599072 
	C181.657181,52.106239 191.645630,56.430729 199.271179,65.038734 
	C210.922989,78.191765 213.204971,94.431046 212.998108,111.258041 
	C212.991089,111.828606 212.545013,112.393761 212.126236,113.378471 
	C209.466568,111.114349 209.552109,108.126793 208.833542,105.593063 
	C205.649628,94.366135 202.544708,83.108376 195.798309,73.348846 
	C190.301971,65.397652 183.301453,59.554840 172.891541,58.221954 
M133.096848,60.421162 
	C116.457497,70.709892 114.307877,88.138504 110.233002,105.057304 
	C114.227730,106.051010 117.290199,104.788727 120.395210,104.766083 
	C136.208740,104.650826 152.019226,104.360909 167.801605,105.729271 
	C170.757111,105.985527 173.261780,105.689217 172.713623,101.624832 
	C171.235474,90.664894 168.910477,79.904808 163.053970,70.379868 
	C156.237854,59.294262 146.331711,56.032631 133.096848,60.421162 
z"/>
<path fill="#000000" opacity="1.000000" stroke="none" 
	d="
M194.576736,181.402664 
	C192.742401,164.698761 192.561859,148.400986 192.673782,132.090881 
	C192.712234,126.487518 192.679901,120.883659 193.684402,115.260201 
	C197.696716,155.940842 200.594467,196.646866 199.840668,237.551163 
	C197.083313,219.070221 194.873245,200.558731 194.576736,181.402664 
z"/>
<path fill="#000000" opacity="1.000000" stroke="none" 
	d="
M212.875916,136.481262 
	C212.944519,134.748962 213.014069,133.440720 213.083618,132.132462 
	C219.253967,161.841248 221.253723,191.898880 221.326935,222.140808 
	C216.681717,193.914017 212.857361,165.606735 212.875916,136.481262 
z"/>
<path fill="#000000" opacity="1.000000" stroke="none" 
	d="
M169.189240,128.430542 
	C168.364044,125.228958 169.461197,123.131973 172.036087,122.036034 
	C174.117691,121.150047 176.201370,121.283295 177.566284,123.335197 
	C177.260880,125.978989 173.968796,124.381920 173.583298,126.745583 
	C173.576935,129.460648 176.484879,128.007996 177.581024,129.237839 
	C174.550674,133.165466 173.176575,133.083679 169.189240,128.430542 
z"/>
<path fill="#000000" opacity="1.000000" stroke="none" 
	d="
M110.389061,130.156921 
	C107.231949,133.044266 104.729172,132.035385 102.783813,129.154007 
	C101.094048,126.651207 101.950478,124.211266 104.198547,122.653069 
	C106.610306,120.981384 109.118729,120.973511 110.915504,124.106659 
	C110.122948,126.084480 107.578247,124.448044 106.637146,126.621323 
	C105.749084,129.681931 110.424171,127.498291 110.389061,130.156921 
z"/>
<path fill="#000000" opacity="1.000000" stroke="none" 
	d="
M143.525009,264.544189 
	C148.420349,258.137451 155.518219,258.692078 161.976501,257.942047 
	C164.978867,257.593353 164.559326,260.387238 163.962387,262.336243 
	C162.695633,266.472137 161.083740,270.508209 159.946426,274.676117 
	C158.951859,278.320892 158.227554,282.093658 160.196747,286.451447 
	C165.676437,283.956757 168.103516,279.406036 169.637177,274.350830 
	C170.693710,270.868317 171.016037,267.169556 171.854324,263.611725 
	C172.309006,261.681976 172.990097,259.720123 174.589981,258.378784 
	C175.793823,257.369446 177.260788,256.908691 178.765060,257.731140 
	C180.470596,258.663635 180.251144,260.147736 179.637024,261.637878 
	C179.006363,263.168182 178.324432,264.677338 178.021118,266.495880 
	C180.150238,263.952087 182.253052,261.385651 184.415863,258.870789 
	C186.575638,256.359497 189.001328,254.080246 192.536469,256.199158 
	C195.998047,258.273956 194.614410,261.320801 193.663040,264.204773 
	C192.360519,268.153259 191.081406,272.110809 189.884903,276.092346 
	C189.317535,277.980316 188.786911,279.935730 190.156509,282.314606 
	C195.411087,280.396667 198.056030,276.131042 200.250748,271.483490 
	C201.315002,269.229828 201.995758,266.765869 204.087616,265.161407 
	C205.171936,264.329742 206.354843,263.648010 207.741943,264.503754 
	C209.276550,265.450531 208.771042,266.757538 208.266449,268.025909 
	C206.786728,271.745575 205.377945,275.485474 205.348434,279.566132 
	C205.337387,281.093567 205.418457,282.713745 207.154907,283.314484 
	C208.666992,283.837555 209.630524,282.637177 210.570419,281.730408 
	C212.882828,279.499451 214.270676,276.628082 215.920273,273.929260 
	C216.810577,272.472656 217.012695,270.342255 219.246567,269.920837 
	C219.761490,275.628754 212.222015,286.357544 207.088409,286.888275 
	C202.371613,287.375946 200.499313,283.912415 199.196838,280.065216 
	C196.883179,280.538605 195.943878,282.528717 194.360458,283.642487 
	C189.571777,287.010834 185.745850,285.702209 184.220688,280.060577 
	C183.174744,276.191559 184.372406,272.460510 184.908142,268.690857 
	C185.109116,267.276672 186.137848,265.930542 185.060287,264.087372 
	C181.630081,266.986115 179.656326,270.848114 177.336060,274.378815 
	C173.648605,279.989899 167.811295,283.339661 163.277512,288.071259 
	C160.672592,290.789795 157.268005,289.386261 155.175812,286.391174 
	C153.958084,284.647919 153.241989,282.554260 152.223053,280.459747 
	C150.216675,280.573883 149.116791,282.528473 147.343704,283.299469 
	C144.174530,284.677551 141.502213,284.229767 139.168915,281.768860 
	C135.682404,278.091705 130.163391,278.145264 126.762978,281.938599 
	C121.460068,287.854187 116.130539,286.783569 113.361687,279.242310 
	C111.567734,274.356262 111.790840,269.395294 113.218971,264.526276 
	C114.066521,261.636658 116.015854,259.096039 119.379707,260.050934 
	C122.499847,260.936615 121.119232,263.888733 120.853935,266.046051 
	C120.190010,271.445007 119.538025,276.820251 121.052963,282.693115 
	C125.159416,281.121124 127.304085,279.291168 125.255013,275.179047 
	C125.032730,274.732971 124.719803,274.325348 124.544495,273.863617 
	C123.435707,270.943390 122.883995,268.007446 125.334007,265.482727 
	C126.542503,264.237335 128.183929,263.411469 129.807617,264.679443 
	C132.658737,266.905853 132.260742,269.866241 131.323380,272.881226 
	C131.035233,273.808075 130.879395,274.776031 130.611176,275.952240 
	C134.680969,277.460541 137.224945,276.036499 138.749481,272.527283 
	C139.952042,269.759216 141.232330,267.071472 143.525009,264.544189 
M148.566193,278.882233 
	C154.195740,274.551361 154.089447,267.923859 156.346466,260.943695 
	C149.053131,264.844727 146.110794,270.434937 144.449036,276.749847 
	C143.731415,279.476929 144.970764,281.048462 148.566193,278.882233 
M128.792160,272.579132 
	C129.118179,270.929871 130.465668,269.146973 128.217316,267.779846 
	C125.712074,271.147736 125.725349,271.318634 128.792160,272.579132 
z"/>
<path fill="#000000" opacity="1.000000" stroke="none" 
	d="
M205.923279,260.338379 
	C202.716965,257.317719 204.650604,255.818100 207.230148,254.716278 
	C209.891022,253.579697 212.810806,252.769257 214.835846,255.628281 
	C215.826904,257.027496 214.610611,258.462921 213.235901,259.284302 
	C211.086166,260.568787 208.879120,261.745056 205.923279,260.338379 
z"/>
<path fill="#000000" opacity="1.000000" stroke="none" 
	d="
M149.605133,193.330231 
	C142.735352,193.087204 136.158600,193.606567 129.665909,192.981064 
	C130.016373,190.056671 131.040726,189.850906 132.037033,189.840561 
	C137.659988,189.782135 143.283539,189.779785 148.906876,189.761093 
	C150.111023,189.757080 151.304993,189.829163 151.559479,191.355331 
	C151.759842,192.557037 151.180191,193.220261 149.605133,193.330231 
z"/>
</svg>